<svg xmlns="http://www.w3.org/2000/svg" viewBox="0 0 32 32" shape-rendering="crispEdges"><rect width="32" height="32" rx="7" fill="#0b0820"/><rect x="12" y="3" width="8" height="2" fill="#ff4fa3"/><rect x="10" y="5" width="2" height="2" fill="#ff4fa3"/><rect x="12" y="5" width="4" height="2" fill="#ffc2df"/><rect x="16" y="5" width="6" height="2" fill="#ff4fa3"/><rect x="10" y="7" width="2" height="2" fill="#ff4fa3"/><rect x="12" y="7" width="2" height="2" fill="#ffc2df"/><rect x="14" y="7" width="8" height="2" fill="#ff4fa3"/><rect x="10" y="9" width="12" height="2" fill="#ff4fa3"/><rect x="12" y="11" width="8" height="2" fill="#ff4fa3"/><rect x="14" y="13" width="4" height="2" fill="#3ee6ff"/><rect x="14" y="15" width="4" height="2" fill="#3ee6ff"/><rect x="14" y="17" width="4" height="2" fill="#3ee6ff"/><rect x="14" y="19" width="4" height="2" fill="#3ee6ff"/><rect x="6" y="21" width="20" height="2" fill="#ffd23f"/><rect x="4" y="23" width="4" height="2" fill="#ffd23f"/><rect x="8" y="23" width="2" height="2" fill="#ff4fa3"/><rect x="10" y="23" width="12" height="2" fill="#ffd23f"/><rect x="22" y="23" width="2" height="2" fill="#3ee6ff"/><rect x="24" y="23" width="4" height="2" fill="#ffd23f"/><rect x="4" y="25" width="24" height="2" fill="#ffd23f"/><rect x="4" y="27" width="24" height="2" fill="#c9971a"/></svg>
